<mxfile host="65bd71144e">
    <diagram id="bCyO315OOb4nftNzH5pj" name="Page-1">
        <mxGraphModel dx="1074" dy="782" grid="1" gridSize="10" guides="1" tooltips="1" connect="1" arrows="1" fold="1" page="1" pageScale="1" pageWidth="850" pageHeight="1100" math="0" shadow="0">
            <root>
                <mxCell id="0"/>
                <mxCell id="1" parent="0"/>
                <mxCell id="3" value="Countries List (Root )" style="swimlane;fillColor=#f0a30a;fontColor=#000000;strokeColor=#BD7000;" parent="1" vertex="1">
                    <mxGeometry x="70" y="40" width="630" height="410" as="geometry"/>
                </mxCell>
                <mxCell id="6" value="Router" style="swimlane;fillColor=#1ba1e2;strokeColor=#006EAF;fontColor=#ffffff;" parent="3" vertex="1">
                    <mxGeometry x="30" y="35" width="570" height="355" as="geometry">
                        <mxRectangle x="30" y="35" width="70" height="23" as="alternateBounds"/>
                    </mxGeometry>
                </mxCell>
                <mxCell id="5" value="HTTP Service / Country Provider" style="rounded=0;whiteSpace=wrap;html=1;fillColor=#e3c800;fontColor=#000000;strokeColor=#B09500;" parent="6" vertex="1">
                    <mxGeometry x="15" y="45" width="540" height="60" as="geometry"/>
                </mxCell>
                <mxCell id="8" value="Country by Name" style="rounded=0;whiteSpace=wrap;html=1;fillColor=#e51400;fontColor=#ffffff;strokeColor=#B20000;" parent="6" vertex="1">
                    <mxGeometry x="360" y="195" width="195" height="60" as="geometry"/>
                </mxCell>
                <mxCell id="9" value="Country List" style="rounded=0;whiteSpace=wrap;html=1;fillColor=#e51400;fontColor=#ffffff;strokeColor=#B20000;" parent="6" vertex="1">
                    <mxGeometry x="15" y="195" width="335" height="135" as="geometry"/>
                </mxCell>
                <mxCell id="13" value="Country List Table" style="rounded=0;whiteSpace=wrap;html=1;fillColor=#e51400;fontColor=#ffffff;strokeColor=#B20000;" parent="6" vertex="1">
                    <mxGeometry x="15" y="119" width="540" height="60" as="geometry"/>
                </mxCell>
                <mxCell id="17" value="sort" style="rounded=0;whiteSpace=wrap;html=1;fillColor=#60a917;fontColor=#ffffff;strokeColor=#2D7600;" parent="6" vertex="1">
                    <mxGeometry x="108.75" y="169" width="67.5" height="35" as="geometry"/>
                </mxCell>
                <mxCell id="18" value="pagination" style="rounded=0;whiteSpace=wrap;html=1;fillColor=#60a917;fontColor=#ffffff;strokeColor=#2D7600;" parent="6" vertex="1">
                    <mxGeometry x="251.25" y="95" width="67.5" height="35" as="geometry"/>
                </mxCell>
                <mxCell id="19" value="capitals" style="rounded=0;whiteSpace=wrap;html=1;fillColor=#60a917;fontColor=#ffffff;strokeColor=#2D7600;" parent="6" vertex="1">
                    <mxGeometry x="30" y="169" width="67.5" height="35" as="geometry"/>
                </mxCell>
                <mxCell id="20" value="languages" style="rounded=0;whiteSpace=wrap;html=1;fillColor=#60a917;fontColor=#ffffff;strokeColor=#2D7600;" parent="6" vertex="1">
                    <mxGeometry x="190" y="169" width="67.5" height="35" as="geometry"/>
                </mxCell>
                <mxCell id="22" value="Mappers" style="rounded=0;whiteSpace=wrap;html=1;fillColor=#6a00ff;fontColor=#ffffff;strokeColor=#3700CC;" parent="6" vertex="1">
                    <mxGeometry x="360" y="270" width="195" height="60" as="geometry"/>
                </mxCell>
                <mxCell id="23" value="filter/search" style="rounded=0;whiteSpace=wrap;html=1;fillColor=#60a917;fontColor=#ffffff;strokeColor=#2D7600;" vertex="1" parent="6">
                    <mxGeometry x="270" y="169" width="67.5" height="35" as="geometry"/>
                </mxCell>
                <mxCell id="14" value="Service" style="rounded=0;whiteSpace=wrap;html=1;fillColor=#e3c800;fontColor=#000000;strokeColor=#B09500;" parent="1" vertex="1">
                    <mxGeometry x="70" y="470" width="80" height="30" as="geometry"/>
                </mxCell>
                <mxCell id="15" value="Component" style="rounded=0;whiteSpace=wrap;html=1;fillColor=#e51400;fontColor=#ffffff;strokeColor=#B20000;" parent="1" vertex="1">
                    <mxGeometry x="170" y="470" width="130" height="30" as="geometry"/>
                </mxCell>
                <mxCell id="16" value="Pipes" style="rounded=0;whiteSpace=wrap;html=1;fillColor=#60a917;fontColor=#ffffff;strokeColor=#2D7600;" parent="1" vertex="1">
                    <mxGeometry x="320" y="470" width="80" height="30" as="geometry"/>
                </mxCell>
                <mxCell id="21" value="Class" style="rounded=0;whiteSpace=wrap;html=1;fillColor=#6a00ff;fontColor=#ffffff;strokeColor=#3700CC;" parent="1" vertex="1">
                    <mxGeometry x="420" y="470" width="80" height="30" as="geometry"/>
                </mxCell>
            </root>
        </mxGraphModel>
    </diagram>
</mxfile>